<svg width="148" height="66" viewBox="0 0 148 66" fill="none" xmlns="http://www.w3.org/2000/svg">
<rect width="148" height="66" fill="white"/>
<rect width="104" height="22" fill="#BC5330"/>
<rect y="44" width="104" height="22" fill="#BC5330"/>
<rect y="22" width="104" height="22" fill="#E3E3E3"/>
<path d="M6.752 12.008C6.792 12.408 6.944 12.688 7.208 12.848C7.472 13.008 7.788 13.088 8.156 13.088C8.284 13.088 8.428 13.08 8.588 13.064C8.756 13.04 8.912 13 9.056 12.944C9.2 12.888 9.316 12.808 9.404 12.704C9.5 12.592 9.544 12.448 9.536 12.272C9.528 12.096 9.464 11.952 9.344 11.84C9.224 11.728 9.068 11.64 8.876 11.576C8.692 11.504 8.48 11.444 8.24 11.396C8 11.348 7.756 11.296 7.508 11.24C7.252 11.184 7.004 11.116 6.764 11.036C6.532 10.956 6.32 10.848 6.128 10.712C5.944 10.576 5.796 10.404 5.684 10.196C5.572 9.98001 5.516 9.71601 5.516 9.40401C5.516 9.06801 5.596 8.78801 5.756 8.56401C5.924 8.33201 6.132 8.14801 6.38 8.01201C6.636 7.86801 6.916 7.76801 7.22 7.71201C7.532 7.65601 7.828 7.62801 8.108 7.62801C8.428 7.62801 8.732 7.66401 9.02 7.73601C9.316 7.80001 9.58 7.90801 9.812 8.06001C10.052 8.21201 10.248 8.41201 10.4 8.66001C10.56 8.90001 10.66 9.19201 10.7 9.53601H9.272C9.208 9.20801 9.056 8.98801 8.816 8.87601C8.584 8.76401 8.316 8.70801 8.012 8.70801C7.916 8.70801 7.8 8.71601 7.664 8.73201C7.536 8.74801 7.412 8.78001 7.292 8.82801C7.18 8.86801 7.084 8.93201 7.004 9.02001C6.924 9.10001 6.884 9.20801 6.884 9.34401C6.884 9.51201 6.94 9.64801 7.052 9.75201C7.172 9.85601 7.324 9.94401 7.508 10.016C7.7 10.08 7.916 10.136 8.156 10.184C8.396 10.232 8.644 10.284 8.9 10.34C9.148 10.396 9.392 10.464 9.632 10.544C9.872 10.624 10.084 10.732 10.268 10.868C10.46 11.004 10.612 11.176 10.724 11.384C10.844 11.592 10.904 11.848 10.904 12.152C10.904 12.52 10.82 12.832 10.652 13.088C10.484 13.344 10.264 13.552 9.992 13.712C9.728 13.872 9.432 13.988 9.104 14.06C8.776 14.132 8.452 14.168 8.132 14.168C7.74 14.168 7.376 14.124 7.04 14.036C6.712 13.948 6.424 13.816 6.176 13.64C5.936 13.456 5.744 13.232 5.6 12.968C5.464 12.696 5.392 12.376 5.384 12.008H6.752Z" fill="white"/>
<path d="M11.4987 7.79601H12.7947V8.63601H12.8187C13.0107 8.27601 13.2787 8.02001 13.6227 7.86801C13.9667 7.70801 14.3387 7.62801 14.7387 7.62801C15.2267 7.62801 15.6507 7.71601 16.0107 7.89201C16.3787 8.06001 16.6827 8.29601 16.9227 8.60001C17.1627 8.89601 17.3427 9.24401 17.4627 9.64401C17.5827 10.044 17.6427 10.472 17.6427 10.928C17.6427 11.344 17.5867 11.748 17.4747 12.14C17.3707 12.532 17.2067 12.88 16.9827 13.184C16.7667 13.48 16.4907 13.72 16.1547 13.904C15.8187 14.08 15.4227 14.168 14.9667 14.168C14.7667 14.168 14.5667 14.148 14.3667 14.108C14.1667 14.076 13.9747 14.02 13.7907 13.94C13.6067 13.86 13.4347 13.76 13.2747 13.64C13.1227 13.512 12.9947 13.364 12.8907 13.196H12.8667V16.292H11.4987V7.79601ZM16.2747 10.904C16.2747 10.624 16.2387 10.352 16.1667 10.088C16.0947 9.82401 15.9867 9.59201 15.8427 9.39201C15.6987 9.18401 15.5187 9.02001 15.3027 8.90001C15.0867 8.77201 14.8387 8.70801 14.5587 8.70801C13.9827 8.70801 13.5467 8.90801 13.2507 9.30801C12.9627 9.70801 12.8187 10.24 12.8187 10.904C12.8187 11.216 12.8547 11.508 12.9267 11.78C13.0067 12.044 13.1227 12.272 13.2747 12.464C13.4267 12.656 13.6067 12.808 13.8147 12.92C14.0307 13.032 14.2787 13.088 14.5587 13.088C14.8707 13.088 15.1347 13.024 15.3507 12.896C15.5667 12.768 15.7427 12.604 15.8787 12.404C16.0227 12.196 16.1227 11.964 16.1787 11.708C16.2427 11.444 16.2747 11.176 16.2747 10.904Z" fill="white"/>
<path d="M23.6346 12.62C23.6346 12.788 23.6546 12.908 23.6946 12.98C23.7426 13.052 23.8306 13.088 23.9586 13.088C23.9986 13.088 24.0466 13.088 24.1026 13.088C24.1586 13.088 24.2226 13.08 24.2946 13.064V14.012C24.2466 14.028 24.1826 14.044 24.1026 14.06C24.0306 14.084 23.9546 14.104 23.8746 14.12C23.7946 14.136 23.7146 14.148 23.6346 14.156C23.5546 14.164 23.4866 14.168 23.4306 14.168C23.1506 14.168 22.9186 14.112 22.7346 14C22.5506 13.888 22.4306 13.692 22.3746 13.412C22.1026 13.676 21.7666 13.868 21.3666 13.988C20.9746 14.108 20.5946 14.168 20.2266 14.168C19.9466 14.168 19.6786 14.128 19.4226 14.048C19.1666 13.976 18.9386 13.868 18.7386 13.724C18.5466 13.572 18.3906 13.384 18.2706 13.16C18.1586 12.928 18.1026 12.66 18.1026 12.356C18.1026 11.972 18.1706 11.66 18.3066 11.42C18.4506 11.18 18.6346 10.992 18.8586 10.856C19.0906 10.72 19.3466 10.624 19.6266 10.568C19.9146 10.504 20.2026 10.456 20.4906 10.424C20.7386 10.376 20.9746 10.344 21.1986 10.328C21.4226 10.304 21.6186 10.268 21.7866 10.22C21.9626 10.172 22.0986 10.1 22.1946 10.004C22.2986 9.90001 22.3506 9.74801 22.3506 9.54801C22.3506 9.37201 22.3066 9.22801 22.2186 9.11601C22.1386 9.00401 22.0346 8.92001 21.9066 8.86401C21.7866 8.80001 21.6506 8.76001 21.4986 8.74401C21.3466 8.72001 21.2026 8.70801 21.0666 8.70801C20.6826 8.70801 20.3666 8.78801 20.1186 8.94801C19.8706 9.10801 19.7306 9.35601 19.6986 9.69201H18.3306C18.3546 9.29201 18.4506 8.96001 18.6186 8.69601C18.7866 8.43201 18.9986 8.22001 19.2546 8.06001C19.5186 7.90001 19.8146 7.78801 20.1426 7.72401C20.4706 7.66001 20.8066 7.62801 21.1506 7.62801C21.4546 7.62801 21.7546 7.66001 22.0506 7.72401C22.3466 7.78801 22.6106 7.89201 22.8426 8.03601C23.0826 8.18001 23.2746 8.36801 23.4186 8.60001C23.5626 8.82401 23.6346 9.10001 23.6346 9.42801V12.62ZM22.2666 10.892C22.0586 11.028 21.8026 11.112 21.4986 11.144C21.1946 11.168 20.8906 11.208 20.5866 11.264C20.4426 11.288 20.3026 11.324 20.1666 11.372C20.0306 11.412 19.9106 11.472 19.8066 11.552C19.7026 11.624 19.6186 11.724 19.5546 11.852C19.4986 11.972 19.4706 12.12 19.4706 12.296C19.4706 12.448 19.5146 12.576 19.6026 12.68C19.6906 12.784 19.7946 12.868 19.9146 12.932C20.0426 12.988 20.1786 13.028 20.3226 13.052C20.4746 13.076 20.6106 13.088 20.7306 13.088C20.8826 13.088 21.0466 13.068 21.2226 13.028C21.3986 12.988 21.5626 12.92 21.7146 12.824C21.8746 12.728 22.0066 12.608 22.1106 12.464C22.2146 12.312 22.2666 12.128 22.2666 11.912V10.892Z" fill="white"/>
<path d="M25.1306 7.79601H30.1706V8.75601L26.6186 12.92H30.3506V14H24.8906V13.04L28.3226 8.87601H25.1306V7.79601Z" fill="white"/>
<path d="M31.0226 5.43201H32.3906V6.72801H31.0226V5.43201ZM31.0226 7.79601H32.3906V14H31.0226V7.79601Z" fill="white"/>
<path d="M36.0051 14.168C35.5091 14.168 35.0651 14.088 34.6731 13.928C34.2891 13.76 33.9611 13.532 33.6891 13.244C33.4251 12.956 33.2211 12.612 33.0771 12.212C32.9411 11.812 32.8731 11.372 32.8731 10.892C32.8731 10.42 32.9411 9.98401 33.0771 9.58401C33.2211 9.18401 33.4251 8.84001 33.6891 8.55201C33.9611 8.26401 34.2891 8.04001 34.6731 7.88001C35.0651 7.71201 35.5091 7.62801 36.0051 7.62801C36.5011 7.62801 36.9411 7.71201 37.3251 7.88001C37.7171 8.04001 38.0451 8.26401 38.3091 8.55201C38.5811 8.84001 38.7851 9.18401 38.9211 9.58401C39.0651 9.98401 39.1371 10.42 39.1371 10.892C39.1371 11.372 39.0651 11.812 38.9211 12.212C38.7851 12.612 38.5811 12.956 38.3091 13.244C38.0451 13.532 37.7171 13.76 37.3251 13.928C36.9411 14.088 36.5011 14.168 36.0051 14.168ZM36.0051 13.088C36.3091 13.088 36.5731 13.024 36.7971 12.896C37.0211 12.768 37.2051 12.6 37.3491 12.392C37.4931 12.184 37.5971 11.952 37.6611 11.696C37.7331 11.432 37.7691 11.164 37.7691 10.892C37.7691 10.628 37.7331 10.364 37.6611 10.1C37.5971 9.83601 37.4931 9.60401 37.3491 9.40401C37.2051 9.19601 37.0211 9.02801 36.7971 8.90001C36.5731 8.77201 36.3091 8.70801 36.0051 8.70801C35.7011 8.70801 35.4371 8.77201 35.2131 8.90001C34.9891 9.02801 34.8051 9.19601 34.6611 9.40401C34.5171 9.60401 34.4091 9.83601 34.3371 10.1C34.2731 10.364 34.2411 10.628 34.2411 10.892C34.2411 11.164 34.2731 11.432 34.3371 11.696C34.4091 11.952 34.5171 12.184 34.6611 12.392C34.8051 12.6 34.9891 12.768 35.2131 12.896C35.4371 13.024 35.7011 13.088 36.0051 13.088Z" fill="white"/>
<path d="M6.752 56.008C6.792 56.408 6.944 56.688 7.208 56.848C7.472 57.008 7.788 57.088 8.156 57.088C8.284 57.088 8.428 57.08 8.588 57.064C8.756 57.04 8.912 57 9.056 56.944C9.2 56.888 9.316 56.808 9.404 56.704C9.5 56.592 9.544 56.448 9.536 56.272C9.528 56.096 9.464 55.952 9.344 55.84C9.224 55.728 9.068 55.64 8.876 55.576C8.692 55.504 8.48 55.444 8.24 55.396C8 55.348 7.756 55.296 7.508 55.24C7.252 55.184 7.004 55.116 6.764 55.036C6.532 54.956 6.32 54.848 6.128 54.712C5.944 54.576 5.796 54.404 5.684 54.196C5.572 53.98 5.516 53.716 5.516 53.404C5.516 53.068 5.596 52.788 5.756 52.564C5.924 52.332 6.132 52.148 6.38 52.012C6.636 51.868 6.916 51.768 7.22 51.712C7.532 51.656 7.828 51.628 8.108 51.628C8.428 51.628 8.732 51.664 9.02 51.736C9.316 51.8 9.58 51.908 9.812 52.06C10.052 52.212 10.248 52.412 10.4 52.66C10.56 52.9 10.66 53.192 10.7 53.536H9.272C9.208 53.208 9.056 52.988 8.816 52.876C8.584 52.764 8.316 52.708 8.012 52.708C7.916 52.708 7.8 52.716 7.664 52.732C7.536 52.748 7.412 52.78 7.292 52.828C7.18 52.868 7.084 52.932 7.004 53.02C6.924 53.1 6.884 53.208 6.884 53.344C6.884 53.512 6.94 53.648 7.052 53.752C7.172 53.856 7.324 53.944 7.508 54.016C7.7 54.08 7.916 54.136 8.156 54.184C8.396 54.232 8.644 54.284 8.9 54.34C9.148 54.396 9.392 54.464 9.632 54.544C9.872 54.624 10.084 54.732 10.268 54.868C10.46 55.004 10.612 55.176 10.724 55.384C10.844 55.592 10.904 55.848 10.904 56.152C10.904 56.52 10.82 56.832 10.652 57.088C10.484 57.344 10.264 57.552 9.992 57.712C9.728 57.872 9.432 57.988 9.104 58.06C8.776 58.132 8.452 58.168 8.132 58.168C7.74 58.168 7.376 58.124 7.04 58.036C6.712 57.948 6.424 57.816 6.176 57.64C5.936 57.456 5.744 57.232 5.6 56.968C5.464 56.696 5.392 56.376 5.384 56.008H6.752Z" fill="white"/>
<path d="M11.4987 51.796H12.7947V52.636H12.8187C13.0107 52.276 13.2787 52.02 13.6227 51.868C13.9667 51.708 14.3387 51.628 14.7387 51.628C15.2267 51.628 15.6507 51.716 16.0107 51.892C16.3787 52.06 16.6827 52.296 16.9227 52.6C17.1627 52.896 17.3427 53.244 17.4627 53.644C17.5827 54.044 17.6427 54.472 17.6427 54.928C17.6427 55.344 17.5867 55.748 17.4747 56.14C17.3707 56.532 17.2067 56.88 16.9827 57.184C16.7667 57.48 16.4907 57.72 16.1547 57.904C15.8187 58.08 15.4227 58.168 14.9667 58.168C14.7667 58.168 14.5667 58.148 14.3667 58.108C14.1667 58.076 13.9747 58.02 13.7907 57.94C13.6067 57.86 13.4347 57.76 13.2747 57.64C13.1227 57.512 12.9947 57.364 12.8907 57.196H12.8667V60.292H11.4987V51.796ZM16.2747 54.904C16.2747 54.624 16.2387 54.352 16.1667 54.088C16.0947 53.824 15.9867 53.592 15.8427 53.392C15.6987 53.184 15.5187 53.02 15.3027 52.9C15.0867 52.772 14.8387 52.708 14.5587 52.708C13.9827 52.708 13.5467 52.908 13.2507 53.308C12.9627 53.708 12.8187 54.24 12.8187 54.904C12.8187 55.216 12.8547 55.508 12.9267 55.78C13.0067 56.044 13.1227 56.272 13.2747 56.464C13.4267 56.656 13.6067 56.808 13.8147 56.92C14.0307 57.032 14.2787 57.088 14.5587 57.088C14.8707 57.088 15.1347 57.024 15.3507 56.896C15.5667 56.768 15.7427 56.604 15.8787 56.404C16.0227 56.196 16.1227 55.964 16.1787 55.708C16.2427 55.444 16.2747 55.176 16.2747 54.904Z" fill="white"/>
<path d="M23.6346 56.62C23.6346 56.788 23.6546 56.908 23.6946 56.98C23.7426 57.052 23.8306 57.088 23.9586 57.088C23.9986 57.088 24.0466 57.088 24.1026 57.088C24.1586 57.088 24.2226 57.08 24.2946 57.064V58.012C24.2466 58.028 24.1826 58.044 24.1026 58.06C24.0306 58.084 23.9546 58.104 23.8746 58.12C23.7946 58.136 23.7146 58.148 23.6346 58.156C23.5546 58.164 23.4866 58.168 23.4306 58.168C23.1506 58.168 22.9186 58.112 22.7346 58C22.5506 57.888 22.4306 57.692 22.3746 57.412C22.1026 57.676 21.7666 57.868 21.3666 57.988C20.9746 58.108 20.5946 58.168 20.2266 58.168C19.9466 58.168 19.6786 58.128 19.4226 58.048C19.1666 57.976 18.9386 57.868 18.7386 57.724C18.5466 57.572 18.3906 57.384 18.2706 57.16C18.1586 56.928 18.1026 56.66 18.1026 56.356C18.1026 55.972 18.1706 55.66 18.3066 55.42C18.4506 55.18 18.6346 54.992 18.8586 54.856C19.0906 54.72 19.3466 54.624 19.6266 54.568C19.9146 54.504 20.2026 54.456 20.4906 54.424C20.7386 54.376 20.9746 54.344 21.1986 54.328C21.4226 54.304 21.6186 54.268 21.7866 54.22C21.9626 54.172 22.0986 54.1 22.1946 54.004C22.2986 53.9 22.3506 53.748 22.3506 53.548C22.3506 53.372 22.3066 53.228 22.2186 53.116C22.1386 53.004 22.0346 52.92 21.9066 52.864C21.7866 52.8 21.6506 52.76 21.4986 52.744C21.3466 52.72 21.2026 52.708 21.0666 52.708C20.6826 52.708 20.3666 52.788 20.1186 52.948C19.8706 53.108 19.7306 53.356 19.6986 53.692H18.3306C18.3546 53.292 18.4506 52.96 18.6186 52.696C18.7866 52.432 18.9986 52.22 19.2546 52.06C19.5186 51.9 19.8146 51.788 20.1426 51.724C20.4706 51.66 20.8066 51.628 21.1506 51.628C21.4546 51.628 21.7546 51.66 22.0506 51.724C22.3466 51.788 22.6106 51.892 22.8426 52.036C23.0826 52.18 23.2746 52.368 23.4186 52.6C23.5626 52.824 23.6346 53.1 23.6346 53.428V56.62ZM22.2666 54.892C22.0586 55.028 21.8026 55.112 21.4986 55.144C21.1946 55.168 20.8906 55.208 20.5866 55.264C20.4426 55.288 20.3026 55.324 20.1666 55.372C20.0306 55.412 19.9106 55.472 19.8066 55.552C19.7026 55.624 19.6186 55.724 19.5546 55.852C19.4986 55.972 19.4706 56.12 19.4706 56.296C19.4706 56.448 19.5146 56.576 19.6026 56.68C19.6906 56.784 19.7946 56.868 19.9146 56.932C20.0426 56.988 20.1786 57.028 20.3226 57.052C20.4746 57.076 20.6106 57.088 20.7306 57.088C20.8826 57.088 21.0466 57.068 21.2226 57.028C21.3986 56.988 21.5626 56.92 21.7146 56.824C21.8746 56.728 22.0066 56.608 22.1106 56.464C22.2146 56.312 22.2666 56.128 22.2666 55.912V54.892Z" fill="white"/>
<path d="M25.1306 51.796H30.1706V52.756L26.6186 56.92H30.3506V58H24.8906V57.04L28.3226 52.876H25.1306V51.796Z" fill="white"/>
<path d="M31.0226 49.432H32.3906V50.728H31.0226V49.432ZM31.0226 51.796H32.3906V58H31.0226V51.796Z" fill="white"/>
<path d="M36.0051 58.168C35.5091 58.168 35.0651 58.088 34.6731 57.928C34.2891 57.76 33.9611 57.532 33.6891 57.244C33.4251 56.956 33.2211 56.612 33.0771 56.212C32.9411 55.812 32.8731 55.372 32.8731 54.892C32.8731 54.42 32.9411 53.984 33.0771 53.584C33.2211 53.184 33.4251 52.84 33.6891 52.552C33.9611 52.264 34.2891 52.04 34.6731 51.88C35.0651 51.712 35.5091 51.628 36.0051 51.628C36.5011 51.628 36.9411 51.712 37.3251 51.88C37.7171 52.04 38.0451 52.264 38.3091 52.552C38.5811 52.84 38.7851 53.184 38.9211 53.584C39.0651 53.984 39.1371 54.42 39.1371 54.892C39.1371 55.372 39.0651 55.812 38.9211 56.212C38.7851 56.612 38.5811 56.956 38.3091 57.244C38.0451 57.532 37.7171 57.76 37.3251 57.928C36.9411 58.088 36.5011 58.168 36.0051 58.168ZM36.0051 57.088C36.3091 57.088 36.5731 57.024 36.7971 56.896C37.0211 56.768 37.2051 56.6 37.3491 56.392C37.4931 56.184 37.5971 55.952 37.6611 55.696C37.7331 55.432 37.7691 55.164 37.7691 54.892C37.7691 54.628 37.7331 54.364 37.6611 54.1C37.5971 53.836 37.4931 53.604 37.3491 53.404C37.2051 53.196 37.0211 53.028 36.7971 52.9C36.5731 52.772 36.3091 52.708 36.0051 52.708C35.7011 52.708 35.4371 52.772 35.2131 52.9C34.9891 53.028 34.8051 53.196 34.6611 53.404C34.5171 53.604 34.4091 53.836 34.3371 54.1C34.2731 54.364 34.2411 54.628 34.2411 54.892C34.2411 55.164 34.2731 55.432 34.3371 55.696C34.4091 55.952 34.5171 56.184 34.6611 56.392C34.8051 56.6 34.9891 56.768 35.2131 56.896C35.4371 57.024 35.7011 57.088 36.0051 57.088Z" fill="white"/>
<path d="M6.752 34.008C6.792 34.408 6.944 34.688 7.208 34.848C7.472 35.008 7.788 35.088 8.156 35.088C8.284 35.088 8.428 35.08 8.588 35.064C8.756 35.04 8.912 35 9.056 34.944C9.2 34.888 9.316 34.808 9.404 34.704C9.5 34.592 9.544 34.448 9.536 34.272C9.528 34.096 9.464 33.952 9.344 33.84C9.224 33.728 9.068 33.64 8.876 33.576C8.692 33.504 8.48 33.444 8.24 33.396C8 33.348 7.756 33.296 7.508 33.24C7.252 33.184 7.004 33.116 6.764 33.036C6.532 32.956 6.32 32.848 6.128 32.712C5.944 32.576 5.796 32.404 5.684 32.196C5.572 31.98 5.516 31.716 5.516 31.404C5.516 31.068 5.596 30.788 5.756 30.564C5.924 30.332 6.132 30.148 6.38 30.012C6.636 29.868 6.916 29.768 7.22 29.712C7.532 29.656 7.828 29.628 8.108 29.628C8.428 29.628 8.732 29.664 9.02 29.736C9.316 29.8 9.58 29.908 9.812 30.06C10.052 30.212 10.248 30.412 10.4 30.66C10.56 30.9 10.66 31.192 10.7 31.536H9.272C9.208 31.208 9.056 30.988 8.816 30.876C8.584 30.764 8.316 30.708 8.012 30.708C7.916 30.708 7.8 30.716 7.664 30.732C7.536 30.748 7.412 30.78 7.292 30.828C7.18 30.868 7.084 30.932 7.004 31.02C6.924 31.1 6.884 31.208 6.884 31.344C6.884 31.512 6.94 31.648 7.052 31.752C7.172 31.856 7.324 31.944 7.508 32.016C7.7 32.08 7.916 32.136 8.156 32.184C8.396 32.232 8.644 32.284 8.9 32.34C9.148 32.396 9.392 32.464 9.632 32.544C9.872 32.624 10.084 32.732 10.268 32.868C10.46 33.004 10.612 33.176 10.724 33.384C10.844 33.592 10.904 33.848 10.904 34.152C10.904 34.52 10.82 34.832 10.652 35.088C10.484 35.344 10.264 35.552 9.992 35.712C9.728 35.872 9.432 35.988 9.104 36.06C8.776 36.132 8.452 36.168 8.132 36.168C7.74 36.168 7.376 36.124 7.04 36.036C6.712 35.948 6.424 35.816 6.176 35.64C5.936 35.456 5.744 35.232 5.6 34.968C5.464 34.696 5.392 34.376 5.384 34.008H6.752Z" fill="#BC5330"/>
<path d="M11.4987 29.796H12.7947V30.636H12.8187C13.0107 30.276 13.2787 30.02 13.6227 29.868C13.9667 29.708 14.3387 29.628 14.7387 29.628C15.2267 29.628 15.6507 29.716 16.0107 29.892C16.3787 30.06 16.6827 30.296 16.9227 30.6C17.1627 30.896 17.3427 31.244 17.4627 31.644C17.5827 32.044 17.6427 32.472 17.6427 32.928C17.6427 33.344 17.5867 33.748 17.4747 34.14C17.3707 34.532 17.2067 34.88 16.9827 35.184C16.7667 35.48 16.4907 35.72 16.1547 35.904C15.8187 36.08 15.4227 36.168 14.9667 36.168C14.7667 36.168 14.5667 36.148 14.3667 36.108C14.1667 36.076 13.9747 36.02 13.7907 35.94C13.6067 35.86 13.4347 35.76 13.2747 35.64C13.1227 35.512 12.9947 35.364 12.8907 35.196H12.8667V38.292H11.4987V29.796ZM16.2747 32.904C16.2747 32.624 16.2387 32.352 16.1667 32.088C16.0947 31.824 15.9867 31.592 15.8427 31.392C15.6987 31.184 15.5187 31.02 15.3027 30.9C15.0867 30.772 14.8387 30.708 14.5587 30.708C13.9827 30.708 13.5467 30.908 13.2507 31.308C12.9627 31.708 12.8187 32.24 12.8187 32.904C12.8187 33.216 12.8547 33.508 12.9267 33.78C13.0067 34.044 13.1227 34.272 13.2747 34.464C13.4267 34.656 13.6067 34.808 13.8147 34.92C14.0307 35.032 14.2787 35.088 14.5587 35.088C14.8707 35.088 15.1347 35.024 15.3507 34.896C15.5667 34.768 15.7427 34.604 15.8787 34.404C16.0227 34.196 16.1227 33.964 16.1787 33.708C16.2427 33.444 16.2747 33.176 16.2747 32.904Z" fill="#BC5330"/>
<path d="M23.6346 34.62C23.6346 34.788 23.6546 34.908 23.6946 34.98C23.7426 35.052 23.8306 35.088 23.9586 35.088C23.9986 35.088 24.0466 35.088 24.1026 35.088C24.1586 35.088 24.2226 35.08 24.2946 35.064V36.012C24.2466 36.028 24.1826 36.044 24.1026 36.06C24.0306 36.084 23.9546 36.104 23.8746 36.12C23.7946 36.136 23.7146 36.148 23.6346 36.156C23.5546 36.164 23.4866 36.168 23.4306 36.168C23.1506 36.168 22.9186 36.112 22.7346 36C22.5506 35.888 22.4306 35.692 22.3746 35.412C22.1026 35.676 21.7666 35.868 21.3666 35.988C20.9746 36.108 20.5946 36.168 20.2266 36.168C19.9466 36.168 19.6786 36.128 19.4226 36.048C19.1666 35.976 18.9386 35.868 18.7386 35.724C18.5466 35.572 18.3906 35.384 18.2706 35.16C18.1586 34.928 18.1026 34.66 18.1026 34.356C18.1026 33.972 18.1706 33.66 18.3066 33.42C18.4506 33.18 18.6346 32.992 18.8586 32.856C19.0906 32.72 19.3466 32.624 19.6266 32.568C19.9146 32.504 20.2026 32.456 20.4906 32.424C20.7386 32.376 20.9746 32.344 21.1986 32.328C21.4226 32.304 21.6186 32.268 21.7866 32.22C21.9626 32.172 22.0986 32.1 22.1946 32.004C22.2986 31.9 22.3506 31.748 22.3506 31.548C22.3506 31.372 22.3066 31.228 22.2186 31.116C22.1386 31.004 22.0346 30.92 21.9066 30.864C21.7866 30.8 21.6506 30.76 21.4986 30.744C21.3466 30.72 21.2026 30.708 21.0666 30.708C20.6826 30.708 20.3666 30.788 20.1186 30.948C19.8706 31.108 19.7306 31.356 19.6986 31.692H18.3306C18.3546 31.292 18.4506 30.96 18.6186 30.696C18.7866 30.432 18.9986 30.22 19.2546 30.06C19.5186 29.9 19.8146 29.788 20.1426 29.724C20.4706 29.66 20.8066 29.628 21.1506 29.628C21.4546 29.628 21.7546 29.66 22.0506 29.724C22.3466 29.788 22.6106 29.892 22.8426 30.036C23.0826 30.18 23.2746 30.368 23.4186 30.6C23.5626 30.824 23.6346 31.1 23.6346 31.428V34.62ZM22.2666 32.892C22.0586 33.028 21.8026 33.112 21.4986 33.144C21.1946 33.168 20.8906 33.208 20.5866 33.264C20.4426 33.288 20.3026 33.324 20.1666 33.372C20.0306 33.412 19.9106 33.472 19.8066 33.552C19.7026 33.624 19.6186 33.724 19.5546 33.852C19.4986 33.972 19.4706 34.12 19.4706 34.296C19.4706 34.448 19.5146 34.576 19.6026 34.68C19.6906 34.784 19.7946 34.868 19.9146 34.932C20.0426 34.988 20.1786 35.028 20.3226 35.052C20.4746 35.076 20.6106 35.088 20.7306 35.088C20.8826 35.088 21.0466 35.068 21.2226 35.028C21.3986 34.988 21.5626 34.92 21.7146 34.824C21.8746 34.728 22.0066 34.608 22.1106 34.464C22.2146 34.312 22.2666 34.128 22.2666 33.912V32.892Z" fill="#BC5330"/>
<path d="M25.1306 29.796H30.1706V30.756L26.6186 34.92H30.3506V36H24.8906V35.04L28.3226 30.876H25.1306V29.796Z" fill="#BC5330"/>
<path d="M31.0226 27.432H32.3906V28.728H31.0226V27.432ZM31.0226 29.796H32.3906V36H31.0226V29.796Z" fill="#BC5330"/>
<path d="M36.0051 36.168C35.5091 36.168 35.0651 36.088 34.6731 35.928C34.2891 35.76 33.9611 35.532 33.6891 35.244C33.4251 34.956 33.2211 34.612 33.0771 34.212C32.9411 33.812 32.8731 33.372 32.8731 32.892C32.8731 32.42 32.9411 31.984 33.0771 31.584C33.2211 31.184 33.4251 30.84 33.6891 30.552C33.9611 30.264 34.2891 30.04 34.6731 29.88C35.0651 29.712 35.5091 29.628 36.0051 29.628C36.5011 29.628 36.9411 29.712 37.3251 29.88C37.7171 30.04 38.0451 30.264 38.3091 30.552C38.5811 30.84 38.7851 31.184 38.9211 31.584C39.0651 31.984 39.1371 32.42 39.1371 32.892C39.1371 33.372 39.0651 33.812 38.9211 34.212C38.7851 34.612 38.5811 34.956 38.3091 35.244C38.0451 35.532 37.7171 35.76 37.3251 35.928C36.9411 36.088 36.5011 36.168 36.0051 36.168ZM36.0051 35.088C36.3091 35.088 36.5731 35.024 36.7971 34.896C37.0211 34.768 37.2051 34.6 37.3491 34.392C37.4931 34.184 37.5971 33.952 37.6611 33.696C37.7331 33.432 37.7691 33.164 37.7691 32.892C37.7691 32.628 37.7331 32.364 37.6611 32.1C37.5971 31.836 37.4931 31.604 37.3491 31.404C37.2051 31.196 37.0211 31.028 36.7971 30.9C36.5731 30.772 36.3091 30.708 36.0051 30.708C35.7011 30.708 35.4371 30.772 35.2131 30.9C34.9891 31.028 34.8051 31.196 34.6611 31.404C34.5171 31.604 34.4091 31.836 34.3371 32.1C34.2731 32.364 34.2411 32.628 34.2411 32.892C34.2411 33.164 34.2731 33.432 34.3371 33.696C34.4091 33.952 34.5171 34.184 34.6611 34.392C34.8051 34.6 34.9891 34.768 35.2131 34.896C35.4371 35.024 35.7011 35.088 36.0051 35.088Z" fill="#BC5330"/>
<path d="M41.752 12.008C41.792 12.408 41.944 12.688 42.208 12.848C42.472 13.008 42.788 13.088 43.156 13.088C43.284 13.088 43.428 13.08 43.588 13.064C43.756 13.04 43.912 13 44.056 12.944C44.2 12.888 44.316 12.808 44.404 12.704C44.5 12.592 44.544 12.448 44.536 12.272C44.528 12.096 44.464 11.952 44.344 11.84C44.224 11.728 44.068 11.64 43.876 11.576C43.692 11.504 43.48 11.444 43.24 11.396C43 11.348 42.756 11.296 42.508 11.24C42.252 11.184 42.004 11.116 41.764 11.036C41.532 10.956 41.32 10.848 41.128 10.712C40.944 10.576 40.796 10.404 40.684 10.196C40.572 9.98001 40.516 9.71601 40.516 9.40401C40.516 9.06801 40.596 8.78801 40.756 8.56401C40.924 8.33201 41.132 8.14801 41.38 8.01201C41.636 7.86801 41.916 7.76801 42.22 7.71201C42.532 7.65601 42.828 7.62801 43.108 7.62801C43.428 7.62801 43.732 7.66401 44.02 7.73601C44.316 7.80001 44.58 7.90801 44.812 8.06001C45.052 8.21201 45.248 8.41201 45.4 8.66001C45.56 8.90001 45.66 9.19201 45.7 9.53601H44.272C44.208 9.20801 44.056 8.98801 43.816 8.87601C43.584 8.76401 43.316 8.70801 43.012 8.70801C42.916 8.70801 42.8 8.71601 42.664 8.73201C42.536 8.74801 42.412 8.78001 42.292 8.82801C42.18 8.86801 42.084 8.93201 42.004 9.02001C41.924 9.10001 41.884 9.20801 41.884 9.34401C41.884 9.51201 41.94 9.64801 42.052 9.75201C42.172 9.85601 42.324 9.94401 42.508 10.016C42.7 10.08 42.916 10.136 43.156 10.184C43.396 10.232 43.644 10.284 43.9 10.34C44.148 10.396 44.392 10.464 44.632 10.544C44.872 10.624 45.084 10.732 45.268 10.868C45.46 11.004 45.612 11.176 45.724 11.384C45.844 11.592 45.904 11.848 45.904 12.152C45.904 12.52 45.82 12.832 45.652 13.088C45.484 13.344 45.264 13.552 44.992 13.712C44.728 13.872 44.432 13.988 44.104 14.06C43.776 14.132 43.452 14.168 43.132 14.168C42.74 14.168 42.376 14.124 42.04 14.036C41.712 13.948 41.424 13.816 41.176 13.64C40.936 13.456 40.744 13.232 40.6 12.968C40.464 12.696 40.392 12.376 40.384 12.008H41.752Z" fill="white"/>
<path d="M46.4987 7.79601H47.7947V8.63601H47.8187C48.0107 8.27601 48.2787 8.02001 48.6227 7.86801C48.9667 7.70801 49.3387 7.62801 49.7387 7.62801C50.2267 7.62801 50.6507 7.71601 51.0107 7.89201C51.3787 8.06001 51.6827 8.29601 51.9227 8.60001C52.1627 8.89601 52.3427 9.24401 52.4627 9.64401C52.5827 10.044 52.6427 10.472 52.6427 10.928C52.6427 11.344 52.5867 11.748 52.4747 12.14C52.3707 12.532 52.2067 12.88 51.9827 13.184C51.7667 13.48 51.4907 13.72 51.1547 13.904C50.8187 14.08 50.4227 14.168 49.9667 14.168C49.7667 14.168 49.5667 14.148 49.3667 14.108C49.1667 14.076 48.9747 14.02 48.7907 13.94C48.6067 13.86 48.4347 13.76 48.2747 13.64C48.1227 13.512 47.9947 13.364 47.8907 13.196H47.8667V16.292H46.4987V7.79601ZM51.2747 10.904C51.2747 10.624 51.2387 10.352 51.1667 10.088C51.0947 9.82401 50.9867 9.59201 50.8427 9.39201C50.6987 9.18401 50.5187 9.02001 50.3027 8.90001C50.0867 8.77201 49.8387 8.70801 49.5587 8.70801C48.9827 8.70801 48.5467 8.90801 48.2507 9.30801C47.9627 9.70801 47.8187 10.24 47.8187 10.904C47.8187 11.216 47.8547 11.508 47.9267 11.78C48.0067 12.044 48.1227 12.272 48.2747 12.464C48.4267 12.656 48.6067 12.808 48.8147 12.92C49.0307 13.032 49.2787 13.088 49.5587 13.088C49.8707 13.088 50.1347 13.024 50.3507 12.896C50.5667 12.768 50.7427 12.604 50.8787 12.404C51.0227 12.196 51.1227 11.964 51.1787 11.708C51.2427 11.444 51.2747 11.176 51.2747 10.904Z" fill="white"/>
<path d="M58.6346 12.62C58.6346 12.788 58.6546 12.908 58.6946 12.98C58.7426 13.052 58.8306 13.088 58.9586 13.088C58.9986 13.088 59.0466 13.088 59.1026 13.088C59.1586 13.088 59.2226 13.08 59.2946 13.064V14.012C59.2466 14.028 59.1826 14.044 59.1026 14.06C59.0306 14.084 58.9546 14.104 58.8746 14.12C58.7946 14.136 58.7146 14.148 58.6346 14.156C58.5546 14.164 58.4866 14.168 58.4306 14.168C58.1506 14.168 57.9186 14.112 57.7346 14C57.5506 13.888 57.4306 13.692 57.3746 13.412C57.1026 13.676 56.7666 13.868 56.3666 13.988C55.9746 14.108 55.5946 14.168 55.2266 14.168C54.9466 14.168 54.6786 14.128 54.4226 14.048C54.1666 13.976 53.9386 13.868 53.7386 13.724C53.5466 13.572 53.3906 13.384 53.2706 13.16C53.1586 12.928 53.1026 12.66 53.1026 12.356C53.1026 11.972 53.1706 11.66 53.3066 11.42C53.4506 11.18 53.6346 10.992 53.8586 10.856C54.0906 10.72 54.3466 10.624 54.6266 10.568C54.9146 10.504 55.2026 10.456 55.4906 10.424C55.7386 10.376 55.9746 10.344 56.1986 10.328C56.4226 10.304 56.6186 10.268 56.7866 10.22C56.9626 10.172 57.0986 10.1 57.1946 10.004C57.2986 9.90001 57.3506 9.74801 57.3506 9.54801C57.3506 9.37201 57.3066 9.22801 57.2186 9.11601C57.1386 9.00401 57.0346 8.92001 56.9066 8.86401C56.7866 8.80001 56.6506 8.76001 56.4986 8.74401C56.3466 8.72001 56.2026 8.70801 56.0666 8.70801C55.6826 8.70801 55.3666 8.78801 55.1186 8.94801C54.8706 9.10801 54.7306 9.35601 54.6986 9.69201H53.3306C53.3546 9.29201 53.4506 8.96001 53.6186 8.69601C53.7866 8.43201 53.9986 8.22001 54.2546 8.06001C54.5186 7.90001 54.8146 7.78801 55.1426 7.72401C55.4706 7.66001 55.8066 7.62801 56.1506 7.62801C56.4546 7.62801 56.7546 7.66001 57.0506 7.72401C57.3466 7.78801 57.6106 7.89201 57.8426 8.03601C58.0826 8.18001 58.2746 8.36801 58.4186 8.60001C58.5626 8.82401 58.6346 9.10001 58.6346 9.42801V12.62ZM57.2666 10.892C57.0586 11.028 56.8026 11.112 56.4986 11.144C56.1946 11.168 55.8906 11.208 55.5866 11.264C55.4426 11.288 55.3026 11.324 55.1666 11.372C55.0306 11.412 54.9106 11.472 54.8066 11.552C54.7026 11.624 54.6186 11.724 54.5546 11.852C54.4986 11.972 54.4706 12.12 54.4706 12.296C54.4706 12.448 54.5146 12.576 54.6026 12.68C54.6906 12.784 54.7946 12.868 54.9146 12.932C55.0426 12.988 55.1786 13.028 55.3226 13.052C55.4746 13.076 55.6106 13.088 55.7306 13.088C55.8826 13.088 56.0466 13.068 56.2226 13.028C56.3986 12.988 56.5626 12.92 56.7146 12.824C56.8746 12.728 57.0066 12.608 57.1106 12.464C57.2146 12.312 57.2666 12.128 57.2666 11.912V10.892Z" fill="white"/>
<path d="M60.1306 7.79601H65.1706V8.75601L61.6186 12.92H65.3506V14H59.8906V13.04L63.3226 8.87601H60.1306V7.79601Z" fill="white"/>
<path d="M66.0226 5.43201H67.3906V6.72801H66.0226V5.43201ZM66.0226 7.79601H67.3906V14H66.0226V7.79601Z" fill="white"/>
<path d="M71.0051 14.168C70.5091 14.168 70.0651 14.088 69.6731 13.928C69.2891 13.76 68.9611 13.532 68.6891 13.244C68.4251 12.956 68.2211 12.612 68.0771 12.212C67.9411 11.812 67.8731 11.372 67.8731 10.892C67.8731 10.42 67.9411 9.98401 68.0771 9.58401C68.2211 9.18401 68.4251 8.84001 68.6891 8.55201C68.9611 8.26401 69.2891 8.04001 69.6731 7.88001C70.0651 7.71201 70.5091 7.62801 71.0051 7.62801C71.5011 7.62801 71.9411 7.71201 72.3251 7.88001C72.7171 8.04001 73.0451 8.26401 73.3091 8.55201C73.5811 8.84001 73.7851 9.18401 73.9211 9.58401C74.0651 9.98401 74.1371 10.42 74.1371 10.892C74.1371 11.372 74.0651 11.812 73.9211 12.212C73.7851 12.612 73.5811 12.956 73.3091 13.244C73.0451 13.532 72.7171 13.76 72.3251 13.928C71.9411 14.088 71.5011 14.168 71.0051 14.168ZM71.0051 13.088C71.3091 13.088 71.5731 13.024 71.7971 12.896C72.0211 12.768 72.2051 12.6 72.3491 12.392C72.4931 12.184 72.5971 11.952 72.6611 11.696C72.7331 11.432 72.7691 11.164 72.7691 10.892C72.7691 10.628 72.7331 10.364 72.6611 10.1C72.5971 9.83601 72.4931 9.60401 72.3491 9.40401C72.2051 9.19601 72.0211 9.02801 71.7971 8.90001C71.5731 8.77201 71.3091 8.70801 71.0051 8.70801C70.7011 8.70801 70.4371 8.77201 70.2131 8.90001C69.9891 9.02801 69.8051 9.19601 69.6611 9.40401C69.5171 9.60401 69.4091 9.83601 69.3371 10.1C69.2731 10.364 69.2411 10.628 69.2411 10.892C69.2411 11.164 69.2731 11.432 69.3371 11.696C69.4091 11.952 69.5171 12.184 69.6611 12.392C69.8051 12.6 69.9891 12.768 70.2131 12.896C70.4371 13.024 70.7011 13.088 71.0051 13.088Z" fill="white"/>
<path d="M41.752 56.008C41.792 56.408 41.944 56.688 42.208 56.848C42.472 57.008 42.788 57.088 43.156 57.088C43.284 57.088 43.428 57.08 43.588 57.064C43.756 57.04 43.912 57 44.056 56.944C44.2 56.888 44.316 56.808 44.404 56.704C44.5 56.592 44.544 56.448 44.536 56.272C44.528 56.096 44.464 55.952 44.344 55.84C44.224 55.728 44.068 55.64 43.876 55.576C43.692 55.504 43.48 55.444 43.24 55.396C43 55.348 42.756 55.296 42.508 55.24C42.252 55.184 42.004 55.116 41.764 55.036C41.532 54.956 41.32 54.848 41.128 54.712C40.944 54.576 40.796 54.404 40.684 54.196C40.572 53.98 40.516 53.716 40.516 53.404C40.516 53.068 40.596 52.788 40.756 52.564C40.924 52.332 41.132 52.148 41.38 52.012C41.636 51.868 41.916 51.768 42.22 51.712C42.532 51.656 42.828 51.628 43.108 51.628C43.428 51.628 43.732 51.664 44.02 51.736C44.316 51.8 44.58 51.908 44.812 52.06C45.052 52.212 45.248 52.412 45.4 52.66C45.56 52.9 45.66 53.192 45.7 53.536H44.272C44.208 53.208 44.056 52.988 43.816 52.876C43.584 52.764 43.316 52.708 43.012 52.708C42.916 52.708 42.8 52.716 42.664 52.732C42.536 52.748 42.412 52.78 42.292 52.828C42.18 52.868 42.084 52.932 42.004 53.02C41.924 53.1 41.884 53.208 41.884 53.344C41.884 53.512 41.94 53.648 42.052 53.752C42.172 53.856 42.324 53.944 42.508 54.016C42.7 54.08 42.916 54.136 43.156 54.184C43.396 54.232 43.644 54.284 43.9 54.34C44.148 54.396 44.392 54.464 44.632 54.544C44.872 54.624 45.084 54.732 45.268 54.868C45.46 55.004 45.612 55.176 45.724 55.384C45.844 55.592 45.904 55.848 45.904 56.152C45.904 56.52 45.82 56.832 45.652 57.088C45.484 57.344 45.264 57.552 44.992 57.712C44.728 57.872 44.432 57.988 44.104 58.06C43.776 58.132 43.452 58.168 43.132 58.168C42.74 58.168 42.376 58.124 42.04 58.036C41.712 57.948 41.424 57.816 41.176 57.64C40.936 57.456 40.744 57.232 40.6 56.968C40.464 56.696 40.392 56.376 40.384 56.008H41.752Z" fill="white"/>
<path d="M46.4987 51.796H47.7947V52.636H47.8187C48.0107 52.276 48.2787 52.02 48.6227 51.868C48.9667 51.708 49.3387 51.628 49.7387 51.628C50.2267 51.628 50.6507 51.716 51.0107 51.892C51.3787 52.06 51.6827 52.296 51.9227 52.6C52.1627 52.896 52.3427 53.244 52.4627 53.644C52.5827 54.044 52.6427 54.472 52.6427 54.928C52.6427 55.344 52.5867 55.748 52.4747 56.14C52.3707 56.532 52.2067 56.88 51.9827 57.184C51.7667 57.48 51.4907 57.72 51.1547 57.904C50.8187 58.08 50.4227 58.168 49.9667 58.168C49.7667 58.168 49.5667 58.148 49.3667 58.108C49.1667 58.076 48.9747 58.02 48.7907 57.94C48.6067 57.86 48.4347 57.76 48.2747 57.64C48.1227 57.512 47.9947 57.364 47.8907 57.196H47.8667V60.292H46.4987V51.796ZM51.2747 54.904C51.2747 54.624 51.2387 54.352 51.1667 54.088C51.0947 53.824 50.9867 53.592 50.8427 53.392C50.6987 53.184 50.5187 53.02 50.3027 52.9C50.0867 52.772 49.8387 52.708 49.5587 52.708C48.9827 52.708 48.5467 52.908 48.2507 53.308C47.9627 53.708 47.8187 54.24 47.8187 54.904C47.8187 55.216 47.8547 55.508 47.9267 55.78C48.0067 56.044 48.1227 56.272 48.2747 56.464C48.4267 56.656 48.6067 56.808 48.8147 56.92C49.0307 57.032 49.2787 57.088 49.5587 57.088C49.8707 57.088 50.1347 57.024 50.3507 56.896C50.5667 56.768 50.7427 56.604 50.8787 56.404C51.0227 56.196 51.1227 55.964 51.1787 55.708C51.2427 55.444 51.2747 55.176 51.2747 54.904Z" fill="white"/>
<path d="M58.6346 56.62C58.6346 56.788 58.6546 56.908 58.6946 56.98C58.7426 57.052 58.8306 57.088 58.9586 57.088C58.9986 57.088 59.0466 57.088 59.1026 57.088C59.1586 57.088 59.2226 57.08 59.2946 57.064V58.012C59.2466 58.028 59.1826 58.044 59.1026 58.06C59.0306 58.084 58.9546 58.104 58.8746 58.12C58.7946 58.136 58.7146 58.148 58.6346 58.156C58.5546 58.164 58.4866 58.168 58.4306 58.168C58.1506 58.168 57.9186 58.112 57.7346 58C57.5506 57.888 57.4306 57.692 57.3746 57.412C57.1026 57.676 56.7666 57.868 56.3666 57.988C55.9746 58.108 55.5946 58.168 55.2266 58.168C54.9466 58.168 54.6786 58.128 54.4226 58.048C54.1666 57.976 53.9386 57.868 53.7386 57.724C53.5466 57.572 53.3906 57.384 53.2706 57.16C53.1586 56.928 53.1026 56.66 53.1026 56.356C53.1026 55.972 53.1706 55.66 53.3066 55.42C53.4506 55.18 53.6346 54.992 53.8586 54.856C54.0906 54.72 54.3466 54.624 54.6266 54.568C54.9146 54.504 55.2026 54.456 55.4906 54.424C55.7386 54.376 55.9746 54.344 56.1986 54.328C56.4226 54.304 56.6186 54.268 56.7866 54.22C56.9626 54.172 57.0986 54.1 57.1946 54.004C57.2986 53.9 57.3506 53.748 57.3506 53.548C57.3506 53.372 57.3066 53.228 57.2186 53.116C57.1386 53.004 57.0346 52.92 56.9066 52.864C56.7866 52.8 56.6506 52.76 56.4986 52.744C56.3466 52.72 56.2026 52.708 56.0666 52.708C55.6826 52.708 55.3666 52.788 55.1186 52.948C54.8706 53.108 54.7306 53.356 54.6986 53.692H53.3306C53.3546 53.292 53.4506 52.96 53.6186 52.696C53.7866 52.432 53.9986 52.22 54.2546 52.06C54.5186 51.9 54.8146 51.788 55.1426 51.724C55.4706 51.66 55.8066 51.628 56.1506 51.628C56.4546 51.628 56.7546 51.66 57.0506 51.724C57.3466 51.788 57.6106 51.892 57.8426 52.036C58.0826 52.18 58.2746 52.368 58.4186 52.6C58.5626 52.824 58.6346 53.1 58.6346 53.428V56.62ZM57.2666 54.892C57.0586 55.028 56.8026 55.112 56.4986 55.144C56.1946 55.168 55.8906 55.208 55.5866 55.264C55.4426 55.288 55.3026 55.324 55.1666 55.372C55.0306 55.412 54.9106 55.472 54.8066 55.552C54.7026 55.624 54.6186 55.724 54.5546 55.852C54.4986 55.972 54.4706 56.12 54.4706 56.296C54.4706 56.448 54.5146 56.576 54.6026 56.68C54.6906 56.784 54.7946 56.868 54.9146 56.932C55.0426 56.988 55.1786 57.028 55.3226 57.052C55.4746 57.076 55.6106 57.088 55.7306 57.088C55.8826 57.088 56.0466 57.068 56.2226 57.028C56.3986 56.988 56.5626 56.92 56.7146 56.824C56.8746 56.728 57.0066 56.608 57.1106 56.464C57.2146 56.312 57.2666 56.128 57.2666 55.912V54.892Z" fill="white"/>
<path d="M60.1306 51.796H65.1706V52.756L61.6186 56.92H65.3506V58H59.8906V57.04L63.3226 52.876H60.1306V51.796Z" fill="white"/>
<path d="M66.0226 49.432H67.3906V50.728H66.0226V49.432ZM66.0226 51.796H67.3906V58H66.0226V51.796Z" fill="white"/>
<path d="M71.0051 58.168C70.5091 58.168 70.0651 58.088 69.6731 57.928C69.2891 57.76 68.9611 57.532 68.6891 57.244C68.4251 56.956 68.2211 56.612 68.0771 56.212C67.9411 55.812 67.8731 55.372 67.8731 54.892C67.8731 54.42 67.9411 53.984 68.0771 53.584C68.2211 53.184 68.4251 52.84 68.6891 52.552C68.9611 52.264 69.2891 52.04 69.6731 51.88C70.0651 51.712 70.5091 51.628 71.0051 51.628C71.5011 51.628 71.9411 51.712 72.3251 51.88C72.7171 52.04 73.0451 52.264 73.3091 52.552C73.5811 52.84 73.7851 53.184 73.9211 53.584C74.0651 53.984 74.1371 54.42 74.1371 54.892C74.1371 55.372 74.0651 55.812 73.9211 56.212C73.7851 56.612 73.5811 56.956 73.3091 57.244C73.0451 57.532 72.7171 57.76 72.3251 57.928C71.9411 58.088 71.5011 58.168 71.0051 58.168ZM71.0051 57.088C71.3091 57.088 71.5731 57.024 71.7971 56.896C72.0211 56.768 72.2051 56.6 72.3491 56.392C72.4931 56.184 72.5971 55.952 72.6611 55.696C72.7331 55.432 72.7691 55.164 72.7691 54.892C72.7691 54.628 72.7331 54.364 72.6611 54.1C72.5971 53.836 72.4931 53.604 72.3491 53.404C72.2051 53.196 72.0211 53.028 71.7971 52.9C71.5731 52.772 71.3091 52.708 71.0051 52.708C70.7011 52.708 70.4371 52.772 70.2131 52.9C69.9891 53.028 69.8051 53.196 69.6611 53.404C69.5171 53.604 69.4091 53.836 69.3371 54.1C69.2731 54.364 69.2411 54.628 69.2411 54.892C69.2411 55.164 69.2731 55.432 69.3371 55.696C69.4091 55.952 69.5171 56.184 69.6611 56.392C69.8051 56.6 69.9891 56.768 70.2131 56.896C70.4371 57.024 70.7011 57.088 71.0051 57.088Z" fill="white"/>
<path d="M41.752 34.008C41.792 34.408 41.944 34.688 42.208 34.848C42.472 35.008 42.788 35.088 43.156 35.088C43.284 35.088 43.428 35.08 43.588 35.064C43.756 35.04 43.912 35 44.056 34.944C44.2 34.888 44.316 34.808 44.404 34.704C44.5 34.592 44.544 34.448 44.536 34.272C44.528 34.096 44.464 33.952 44.344 33.84C44.224 33.728 44.068 33.64 43.876 33.576C43.692 33.504 43.48 33.444 43.24 33.396C43 33.348 42.756 33.296 42.508 33.24C42.252 33.184 42.004 33.116 41.764 33.036C41.532 32.956 41.32 32.848 41.128 32.712C40.944 32.576 40.796 32.404 40.684 32.196C40.572 31.98 40.516 31.716 40.516 31.404C40.516 31.068 40.596 30.788 40.756 30.564C40.924 30.332 41.132 30.148 41.38 30.012C41.636 29.868 41.916 29.768 42.22 29.712C42.532 29.656 42.828 29.628 43.108 29.628C43.428 29.628 43.732 29.664 44.02 29.736C44.316 29.8 44.58 29.908 44.812 30.06C45.052 30.212 45.248 30.412 45.4 30.66C45.56 30.9 45.66 31.192 45.7 31.536H44.272C44.208 31.208 44.056 30.988 43.816 30.876C43.584 30.764 43.316 30.708 43.012 30.708C42.916 30.708 42.8 30.716 42.664 30.732C42.536 30.748 42.412 30.78 42.292 30.828C42.18 30.868 42.084 30.932 42.004 31.02C41.924 31.1 41.884 31.208 41.884 31.344C41.884 31.512 41.94 31.648 42.052 31.752C42.172 31.856 42.324 31.944 42.508 32.016C42.7 32.08 42.916 32.136 43.156 32.184C43.396 32.232 43.644 32.284 43.9 32.34C44.148 32.396 44.392 32.464 44.632 32.544C44.872 32.624 45.084 32.732 45.268 32.868C45.46 33.004 45.612 33.176 45.724 33.384C45.844 33.592 45.904 33.848 45.904 34.152C45.904 34.52 45.82 34.832 45.652 35.088C45.484 35.344 45.264 35.552 44.992 35.712C44.728 35.872 44.432 35.988 44.104 36.06C43.776 36.132 43.452 36.168 43.132 36.168C42.74 36.168 42.376 36.124 42.04 36.036C41.712 35.948 41.424 35.816 41.176 35.64C40.936 35.456 40.744 35.232 40.6 34.968C40.464 34.696 40.392 34.376 40.384 34.008H41.752Z" fill="#BC5330"/>
<path d="M46.4987 29.796H47.7947V30.636H47.8187C48.0107 30.276 48.2787 30.02 48.6227 29.868C48.9667 29.708 49.3387 29.628 49.7387 29.628C50.2267 29.628 50.6507 29.716 51.0107 29.892C51.3787 30.06 51.6827 30.296 51.9227 30.6C52.1627 30.896 52.3427 31.244 52.4627 31.644C52.5827 32.044 52.6427 32.472 52.6427 32.928C52.6427 33.344 52.5867 33.748 52.4747 34.14C52.3707 34.532 52.2067 34.88 51.9827 35.184C51.7667 35.48 51.4907 35.72 51.1547 35.904C50.8187 36.08 50.4227 36.168 49.9667 36.168C49.7667 36.168 49.5667 36.148 49.3667 36.108C49.1667 36.076 48.9747 36.02 48.7907 35.94C48.6067 35.86 48.4347 35.76 48.2747 35.64C48.1227 35.512 47.9947 35.364 47.8907 35.196H47.8667V38.292H46.4987V29.796ZM51.2747 32.904C51.2747 32.624 51.2387 32.352 51.1667 32.088C51.0947 31.824 50.9867 31.592 50.8427 31.392C50.6987 31.184 50.5187 31.02 50.3027 30.9C50.0867 30.772 49.8387 30.708 49.5587 30.708C48.9827 30.708 48.5467 30.908 48.2507 31.308C47.9627 31.708 47.8187 32.24 47.8187 32.904C47.8187 33.216 47.8547 33.508 47.9267 33.78C48.0067 34.044 48.1227 34.272 48.2747 34.464C48.4267 34.656 48.6067 34.808 48.8147 34.92C49.0307 35.032 49.2787 35.088 49.5587 35.088C49.8707 35.088 50.1347 35.024 50.3507 34.896C50.5667 34.768 50.7427 34.604 50.8787 34.404C51.0227 34.196 51.1227 33.964 51.1787 33.708C51.2427 33.444 51.2747 33.176 51.2747 32.904Z" fill="#BC5330"/>
<path d="M58.6346 34.62C58.6346 34.788 58.6546 34.908 58.6946 34.98C58.7426 35.052 58.8306 35.088 58.9586 35.088C58.9986 35.088 59.0466 35.088 59.1026 35.088C59.1586 35.088 59.2226 35.08 59.2946 35.064V36.012C59.2466 36.028 59.1826 36.044 59.1026 36.06C59.0306 36.084 58.9546 36.104 58.8746 36.12C58.7946 36.136 58.7146 36.148 58.6346 36.156C58.5546 36.164 58.4866 36.168 58.4306 36.168C58.1506 36.168 57.9186 36.112 57.7346 36C57.5506 35.888 57.4306 35.692 57.3746 35.412C57.1026 35.676 56.7666 35.868 56.3666 35.988C55.9746 36.108 55.5946 36.168 55.2266 36.168C54.9466 36.168 54.6786 36.128 54.4226 36.048C54.1666 35.976 53.9386 35.868 53.7386 35.724C53.5466 35.572 53.3906 35.384 53.2706 35.16C53.1586 34.928 53.1026 34.66 53.1026 34.356C53.1026 33.972 53.1706 33.66 53.3066 33.42C53.4506 33.18 53.6346 32.992 53.8586 32.856C54.0906 32.72 54.3466 32.624 54.6266 32.568C54.9146 32.504 55.2026 32.456 55.4906 32.424C55.7386 32.376 55.9746 32.344 56.1986 32.328C56.4226 32.304 56.6186 32.268 56.7866 32.22C56.9626 32.172 57.0986 32.1 57.1946 32.004C57.2986 31.9 57.3506 31.748 57.3506 31.548C57.3506 31.372 57.3066 31.228 57.2186 31.116C57.1386 31.004 57.0346 30.92 56.9066 30.864C56.7866 30.8 56.6506 30.76 56.4986 30.744C56.3466 30.72 56.2026 30.708 56.0666 30.708C55.6826 30.708 55.3666 30.788 55.1186 30.948C54.8706 31.108 54.7306 31.356 54.6986 31.692H53.3306C53.3546 31.292 53.4506 30.96 53.6186 30.696C53.7866 30.432 53.9986 30.22 54.2546 30.06C54.5186 29.9 54.8146 29.788 55.1426 29.724C55.4706 29.66 55.8066 29.628 56.1506 29.628C56.4546 29.628 56.7546 29.66 57.0506 29.724C57.3466 29.788 57.6106 29.892 57.8426 30.036C58.0826 30.18 58.2746 30.368 58.4186 30.6C58.5626 30.824 58.6346 31.1 58.6346 31.428V34.62ZM57.2666 32.892C57.0586 33.028 56.8026 33.112 56.4986 33.144C56.1946 33.168 55.8906 33.208 55.5866 33.264C55.4426 33.288 55.3026 33.324 55.1666 33.372C55.0306 33.412 54.9106 33.472 54.8066 33.552C54.7026 33.624 54.6186 33.724 54.5546 33.852C54.4986 33.972 54.4706 34.12 54.4706 34.296C54.4706 34.448 54.5146 34.576 54.6026 34.68C54.6906 34.784 54.7946 34.868 54.9146 34.932C55.0426 34.988 55.1786 35.028 55.3226 35.052C55.4746 35.076 55.6106 35.088 55.7306 35.088C55.8826 35.088 56.0466 35.068 56.2226 35.028C56.3986 34.988 56.5626 34.92 56.7146 34.824C56.8746 34.728 57.0066 34.608 57.1106 34.464C57.2146 34.312 57.2666 34.128 57.2666 33.912V32.892Z" fill="#BC5330"/>
<path d="M60.1306 29.796H65.1706V30.756L61.6186 34.92H65.3506V36H59.8906V35.04L63.3226 30.876H60.1306V29.796Z" fill="#BC5330"/>
<path d="M66.0226 27.432H67.3906V28.728H66.0226V27.432ZM66.0226 29.796H67.3906V36H66.0226V29.796Z" fill="#BC5330"/>
<path d="M71.0051 36.168C70.5091 36.168 70.0651 36.088 69.6731 35.928C69.2891 35.76 68.9611 35.532 68.6891 35.244C68.4251 34.956 68.2211 34.612 68.0771 34.212C67.9411 33.812 67.8731 33.372 67.8731 32.892C67.8731 32.42 67.9411 31.984 68.0771 31.584C68.2211 31.184 68.4251 30.84 68.6891 30.552C68.9611 30.264 69.2891 30.04 69.6731 29.88C70.0651 29.712 70.5091 29.628 71.0051 29.628C71.5011 29.628 71.9411 29.712 72.3251 29.88C72.7171 30.04 73.0451 30.264 73.3091 30.552C73.5811 30.84 73.7851 31.184 73.9211 31.584C74.0651 31.984 74.1371 32.42 74.1371 32.892C74.1371 33.372 74.0651 33.812 73.9211 34.212C73.7851 34.612 73.5811 34.956 73.3091 35.244C73.0451 35.532 72.7171 35.76 72.3251 35.928C71.9411 36.088 71.5011 36.168 71.0051 36.168ZM71.0051 35.088C71.3091 35.088 71.5731 35.024 71.7971 34.896C72.0211 34.768 72.2051 34.6 72.3491 34.392C72.4931 34.184 72.5971 33.952 72.6611 33.696C72.7331 33.432 72.7691 33.164 72.7691 32.892C72.7691 32.628 72.7331 32.364 72.6611 32.1C72.5971 31.836 72.4931 31.604 72.3491 31.404C72.2051 31.196 72.0211 31.028 71.7971 30.9C71.5731 30.772 71.3091 30.708 71.0051 30.708C70.7011 30.708 70.4371 30.772 70.2131 30.9C69.9891 31.028 69.8051 31.196 69.6611 31.404C69.5171 31.604 69.4091 31.836 69.3371 32.1C69.2731 32.364 69.2411 32.628 69.2411 32.892C69.2411 33.164 69.2731 33.432 69.3371 33.696C69.4091 33.952 69.5171 34.184 69.6611 34.392C69.8051 34.6 69.9891 34.768 70.2131 34.896C70.4371 35.024 70.7011 35.088 71.0051 35.088Z" fill="#BC5330"/>
<rect x="82" width="22" height="22" fill="#E3E3E3"/>
<rect x="126" width="22" height="22" fill="#E3E3E3"/>
<rect x="82" y="22" width="22" height="22" fill="#BC5330"/>
<rect x="126" y="22" width="22" height="22" fill="#BC5330"/>
<rect x="104" y="44" width="22" height="22" fill="#BC5330"/>
<rect x="104" width="22" height="22" fill="#BC5330"/>
<rect x="82" y="44" width="22" height="22" fill="#E3E3E3"/>
<rect x="126" y="44" width="22" height="22" fill="#E3E3E3"/>
<rect x="104" y="22" width="22" height="22" fill="#E3E3E3"/>
<path d="M93 5L94.1459 9.01525L98.1962 8L95.2918 11L98.1962 14L94.1459 12.9848L93 17L91.8541 12.9848L87.8038 14L90.7082 11L87.8038 8L91.8541 9.01525L93 5Z" fill="#BC5330"/>
<path d="M137 5L138.146 9.01525L142.196 8L139.292 11L142.196 14L138.146 12.9848L137 17L135.854 12.9848L131.804 14L134.708 11L131.804 8L135.854 9.01525L137 5Z" fill="#BC5330"/>
<path d="M93 27L94.1459 31.0152L98.1962 30L95.2918 33L98.1962 36L94.1459 34.9848L93 39L91.8541 34.9848L87.8038 36L90.7082 33L87.8038 30L91.8541 31.0152L93 27Z" fill="white"/>
<path d="M137 27L138.146 31.0152L142.196 30L139.292 33L142.196 36L138.146 34.9848L137 39L135.854 34.9848L131.804 36L134.708 33L131.804 30L135.854 31.0152L137 27Z" fill="white"/>
<path d="M115 49L116.146 53.0152L120.196 52L117.292 55L120.196 58L116.146 56.9848L115 61L113.854 56.9848L109.804 58L112.708 55L109.804 52L113.854 53.0152L115 49Z" fill="white"/>
<path d="M115 5L116.146 9.01525L120.196 8L117.292 11L120.196 14L116.146 12.9848L115 17L113.854 12.9848L109.804 14L112.708 11L109.804 8L113.854 9.01525L115 5Z" fill="white"/>
<path d="M93 49L94.1459 53.0152L98.1962 52L95.2918 55L98.1962 58L94.1459 56.9848L93 61L91.8541 56.9848L87.8038 58L90.7082 55L87.8038 52L91.8541 53.0152L93 49Z" fill="#BC5330"/>
<path d="M137 49L138.146 53.0152L142.196 52L139.292 55L142.196 58L138.146 56.9848L137 61L135.854 56.9848L131.804 58L134.708 55L131.804 52L135.854 53.0152L137 49Z" fill="#BC5330"/>
<path d="M115 27L116.146 31.0152L120.196 30L117.292 33L120.196 36L116.146 34.9848L115 39L113.854 34.9848L109.804 36L112.708 33L109.804 30L113.854 31.0152L115 27Z" fill="#BC5330"/>
</svg>
