<svg width="48" height="24" viewBox="0 0 48 24" fill="none" xmlns="http://www.w3.org/2000/svg">
<ellipse cx="24" cy="12" rx="24" ry="12" fill="white"/>
<path d="M13.095 11.43V7.49999H15.885C16.695 7.49999 17.285 7.66999 17.655 8.00999C18.035 8.33999 18.225 8.82499 18.225 9.46499C18.225 10.105 18.035 10.595 17.655 10.935C17.285 11.275 16.695 11.44 15.885 11.43H13.095ZM11.67 6.29999V17.01H13.095V12.63H16.365C17.445 12.64 18.26 12.365 18.81 11.805C19.37 11.245 19.65 10.465 19.65 9.46499C19.65 8.46499 19.37 7.68999 18.81 7.13999C18.26 6.57999 17.445 6.29999 16.365 6.29999H11.67Z" fill="#BC5330"/>
<path d="M22.2216 15.81V7.49999H24.6216C25.2816 7.49999 25.8366 7.59499 26.2866 7.78499C26.7366 7.96499 27.1016 8.23499 27.3816 8.59499C27.6716 8.94499 27.8766 9.37499 27.9966 9.88499C28.1266 10.385 28.1916 10.955 28.1916 11.595C28.1916 12.255 28.1216 12.82 27.9816 13.29C27.8516 13.75 27.6816 14.135 27.4716 14.445C27.2616 14.755 27.0216 15 26.7516 15.18C26.4916 15.36 26.2266 15.5 25.9566 15.6C25.6866 15.69 25.4316 15.75 25.1916 15.78C24.9516 15.8 24.7516 15.81 24.5916 15.81H22.2216ZM20.7966 6.29999V17.01H24.4716C25.3616 17.01 26.1316 16.885 26.7816 16.635C27.4316 16.385 27.9666 16.025 28.3866 15.555C28.8066 15.075 29.1166 14.49 29.3166 13.8C29.5166 13.1 29.6166 12.3 29.6166 11.4C29.6166 9.67999 29.1716 8.39999 28.2816 7.55999C27.3916 6.71999 26.1216 6.29999 24.4716 6.29999H20.7966Z" fill="#BC5330"/>
<path d="M30.7581 6.29999V17.01H32.1831V12.105H37.1031V10.905H32.1831V7.49999H37.7931V6.29999H30.7581Z" fill="#BC5330"/>
</svg>
