<svg width="62" height="24" viewBox="0 0 62 24" fill="none" xmlns="http://www.w3.org/2000/svg">
<ellipse cx="31" cy="12" rx="31" ry="12" fill="white"/>
<path d="M17.5927 9.425H18.9427C18.9227 8.835 18.8077 8.33 18.5977 7.91C18.3977 7.48 18.1177 7.125 17.7577 6.845C17.4077 6.565 16.9977 6.36 16.5277 6.23C16.0577 6.1 15.5477 6.035 14.9977 6.035C14.5077 6.035 14.0277 6.1 13.5577 6.23C13.0977 6.35 12.6827 6.54 12.3127 6.8C11.9527 7.05 11.6627 7.375 11.4427 7.775C11.2227 8.165 11.1127 8.63 11.1127 9.17C11.1127 9.66 11.2077 10.07 11.3977 10.4C11.5977 10.72 11.8577 10.985 12.1777 11.195C12.5077 11.395 12.8777 11.56 13.2877 11.69C13.6977 11.81 14.1127 11.92 14.5327 12.02C14.9627 12.11 15.3827 12.2 15.7927 12.29C16.2027 12.38 16.5677 12.5 16.8877 12.65C17.2177 12.79 17.4777 12.975 17.6677 13.205C17.8677 13.435 17.9677 13.735 17.9677 14.105C17.9677 14.495 17.8877 14.815 17.7277 15.065C17.5677 15.315 17.3577 15.515 17.0977 15.665C16.8377 15.805 16.5427 15.905 16.2127 15.965C15.8927 16.025 15.5727 16.055 15.2527 16.055C14.8527 16.055 14.4627 16.005 14.0827 15.905C13.7027 15.805 13.3677 15.65 13.0777 15.44C12.7977 15.23 12.5677 14.965 12.3877 14.645C12.2177 14.315 12.1327 13.925 12.1327 13.475H10.7827C10.7827 14.125 10.8977 14.69 11.1277 15.17C11.3677 15.64 11.6877 16.03 12.0877 16.34C12.4977 16.64 12.9677 16.865 13.4977 17.015C14.0377 17.165 14.6077 17.24 15.2077 17.24C15.6977 17.24 16.1877 17.18 16.6777 17.06C17.1777 16.95 17.6277 16.77 18.0277 16.52C18.4277 16.26 18.7527 15.93 19.0027 15.53C19.2627 15.12 19.3927 14.63 19.3927 14.06C19.3927 13.53 19.2927 13.09 19.0927 12.74C18.9027 12.39 18.6427 12.1 18.3127 11.87C17.9927 11.64 17.6277 11.46 17.2177 11.33C16.8077 11.19 16.3877 11.07 15.9577 10.97C15.5377 10.87 15.1227 10.78 14.7127 10.7C14.3027 10.61 13.9327 10.5 13.6027 10.37C13.2827 10.24 13.0227 10.075 12.8227 9.875C12.6327 9.665 12.5377 9.395 12.5377 9.065C12.5377 8.715 12.6027 8.425 12.7327 8.195C12.8727 7.955 13.0527 7.765 13.2727 7.625C13.5027 7.485 13.7627 7.385 14.0527 7.325C14.3427 7.265 14.6377 7.235 14.9377 7.235C15.6777 7.235 16.2827 7.41 16.7527 7.76C17.2327 8.1 17.5127 8.655 17.5927 9.425Z" fill="#BC5330"/>
<path d="M21.3492 11.645C21.3492 11.105 21.4192 10.575 21.5592 10.055C21.6992 9.525 21.9192 9.05 22.2192 8.63C22.5192 8.21 22.9042 7.875 23.3742 7.625C23.8442 7.365 24.4042 7.235 25.0542 7.235C25.7042 7.235 26.2642 7.365 26.7342 7.625C27.2042 7.875 27.5892 8.21 27.8892 8.63C28.1892 9.05 28.4092 9.525 28.5492 10.055C28.6892 10.575 28.7592 11.105 28.7592 11.645C28.7592 12.185 28.6892 12.72 28.5492 13.25C28.4092 13.77 28.1892 14.24 27.8892 14.66C27.5892 15.08 27.2042 15.42 26.7342 15.68C26.2642 15.93 25.7042 16.055 25.0542 16.055C24.4042 16.055 23.8442 15.93 23.3742 15.68C22.9042 15.42 22.5192 15.08 22.2192 14.66C21.9192 14.24 21.6992 13.77 21.5592 13.25C21.4192 12.72 21.3492 12.185 21.3492 11.645ZM19.9242 11.645C19.9242 12.375 20.0292 13.08 20.2392 13.76C20.4592 14.43 20.7842 15.025 21.2142 15.545C21.6442 16.065 22.1792 16.48 22.8192 16.79C23.4592 17.09 24.2042 17.24 25.0542 17.24C25.9042 17.24 26.6492 17.09 27.2892 16.79C27.9292 16.48 28.4642 16.065 28.8942 15.545C29.3242 15.025 29.6442 14.43 29.8542 13.76C30.0742 13.08 30.1842 12.375 30.1842 11.645C30.1842 10.915 30.0742 10.215 29.8542 9.545C29.6442 8.865 29.3242 8.265 28.8942 7.745C28.4642 7.225 27.9292 6.81 27.2892 6.5C26.6492 6.19 25.9042 6.035 25.0542 6.035C24.2042 6.035 23.4592 6.19 22.8192 6.5C22.1792 6.81 21.6442 7.225 21.2142 7.745C20.7842 8.265 20.4592 8.865 20.2392 9.545C20.0292 10.215 19.9242 10.915 19.9242 11.645Z" fill="#BC5330"/>
<path d="M32.1457 11.645C32.1457 11.105 32.2157 10.575 32.3557 10.055C32.4957 9.525 32.7157 9.05 33.0157 8.63C33.3157 8.21 33.7007 7.875 34.1707 7.625C34.6407 7.365 35.2007 7.235 35.8507 7.235C36.5007 7.235 37.0607 7.365 37.5307 7.625C38.0007 7.875 38.3857 8.21 38.6857 8.63C38.9857 9.05 39.2057 9.525 39.3457 10.055C39.4857 10.575 39.5557 11.105 39.5557 11.645C39.5557 12.185 39.4857 12.72 39.3457 13.25C39.2057 13.77 38.9857 14.24 38.6857 14.66C38.3857 15.08 38.0007 15.42 37.5307 15.68C37.0607 15.93 36.5007 16.055 35.8507 16.055C35.2007 16.055 34.6407 15.93 34.1707 15.68C33.7007 15.42 33.3157 15.08 33.0157 14.66C32.7157 14.24 32.4957 13.77 32.3557 13.25C32.2157 12.72 32.1457 12.185 32.1457 11.645ZM30.7207 11.645C30.7207 12.375 30.8257 13.08 31.0357 13.76C31.2557 14.43 31.5807 15.025 32.0107 15.545C32.4407 16.065 32.9757 16.48 33.6157 16.79C34.2557 17.09 35.0007 17.24 35.8507 17.24C36.7007 17.24 37.4457 17.09 38.0857 16.79C38.7257 16.48 39.2607 16.065 39.6907 15.545C40.1207 15.025 40.4407 14.43 40.6507 13.76C40.8707 13.08 40.9807 12.375 40.9807 11.645C40.9807 10.915 40.8707 10.215 40.6507 9.545C40.4407 8.865 40.1207 8.265 39.6907 7.745C39.2607 7.225 38.7257 6.81 38.0857 6.5C37.4457 6.19 36.7007 6.035 35.8507 6.035C35.0007 6.035 34.2557 6.19 33.6157 6.5C32.9757 6.81 32.4407 7.225 32.0107 7.745C31.5807 8.265 31.2557 8.865 31.0357 9.545C30.8257 10.215 30.7207 10.915 30.7207 11.645Z" fill="#BC5330"/>
<path d="M42.1022 6.29V17H43.4522V8.405H43.4822L49.0772 17H50.6372V6.29H49.2872V14.975H49.2572L43.6172 6.29H42.1022Z" fill="#BC5330"/>
</svg>
