<?xml version="1.0" encoding="UTF-8" standalone="no"?><!DOCTYPE svg PUBLIC "-//W3C//DTD SVG 1.1//EN" "http://www.w3.org/Graphics/SVG/1.1/DTD/svg11.dtd"><svg width="100%" height="100%" viewBox="0 0 3543 1476" version="1.1" xmlns="http://www.w3.org/2000/svg" xmlns:xlink="http://www.w3.org/1999/xlink" xml:space="preserve" xmlns:serif="http://www.serif.com/" style="fill-rule:evenodd;clip-rule:evenodd;stroke-linejoin:round;stroke-miterlimit:2;"><g id="Livello-1" serif:id="Livello 1"><path d="M397.121,476.45l130.479,-0c-0.604,15.708 20.542,43.491 105.109,45.308c65.845,1.204 128.67,-3.629 128.67,-36.25c0,-60.404 -354.595,22.958 -354.595,-158.267c-0,-86.987 90.612,-143.766 225.925,-143.766c138.937,-0 234.383,59.195 235.591,149.204l-130.479,-0c0.604,-15.704 -13.896,-44.096 -94.842,-45.304c-60.408,-1.209 -113.566,3.625 -113.566,36.241c-0,65.242 354.596,-10.266 354.596,158.271c-0,86.988 -96.05,143.771 -240.425,143.771c-149.209,-0 -248.275,-59.2 -246.463,-149.208" style="fill:#ffffff;fill-rule:nonzero;"/><path d="M1216.23,353.218c22.35,-0 35.037,-8.459 35.037,-30.809c0,-22.35 -12.688,-31.412 -35.037,-31.412l-174.58,-0l0,62.221l174.58,-0Zm-296,-160.08l311.104,0c87.587,0 141.954,58.596 141.954,129.271c-0,85.779 -60.408,128.667 -141.954,128.667l-189.079,-0l-0,164.912l-122.025,0l-0,-422.85Z" style="fill:#ffffff;fill-rule:nonzero;"/><path d="M1662.64,440.809l-76.113,-137.729l-76.721,137.729l152.834,0Zm-141.959,-247.671l131.088,0l253.104,422.85l-144.371,0l-39.871,-71.279l-268.816,0l-39.867,71.279l-144.371,0l253.104,-422.85Z" style="fill:#ffffff;fill-rule:nonzero;"/><path d="M1916.93,536.252l292.975,-239.213l-288.142,0l0,-103.9l498.363,0l-0,78.529l-291.771,240.421l297.813,0l-0,103.9l-509.238,0l0,-79.737Z" style="fill:#ffffff;fill-rule:nonzero;"/><rect x="2465.41" y="193.138" width="122.025" height="422.85" style="fill:#ffffff;"/><path d="M3024.19,404.565c0,-77.321 -53.158,-117.192 -145.583,-117.192c-91.821,-0 -144.979,39.871 -144.979,117.192c-0,77.32 53.158,117.191 144.979,117.191c92.425,0 145.583,-39.871 145.583,-117.191m-412.587,-0c-0,-132.9 102.091,-221.092 267.004,-221.092c165.517,-0 267.608,88.192 267.608,221.092c0,132.9 -102.092,221.091 -267.608,221.091c-164.913,0 -267.004,-88.191 -267.004,-221.091" style="fill:#ffffff;fill-rule:nonzero;"/><path d="M397.121,971.097l130.479,-0c-0.604,15.708 20.542,43.491 105.109,45.304c65.845,1.208 128.67,-3.621 128.67,-36.242c0,-60.408 -354.595,22.954 -354.595,-158.271c-0,-86.987 90.612,-143.766 225.925,-143.766c138.937,-0 234.383,59.2 235.591,149.204l-130.479,-0c0.604,-15.704 -13.896,-44.096 -94.842,-45.304c-60.408,-1.209 -113.566,3.621 -113.566,36.241c-0,65.246 354.596,-10.27 354.596,158.271c-0,86.988 -96.05,143.771 -240.425,143.771c-149.209,0 -248.275,-59.2 -246.463,-149.208" style="fill:#ffffff;fill-rule:nonzero;"/><path d="M1216.23,847.867c22.35,-0 35.037,-8.459 35.037,-30.813c0,-22.35 -12.688,-31.412 -35.037,-31.412l-174.58,-0l0,62.225l174.58,-0Zm-296,-160.079l311.104,-0c87.587,-0 141.954,58.595 141.954,129.266c-0,85.779 -60.408,128.671 -141.954,128.671l-189.079,0l-0,164.913l-122.025,-0l-0,-422.85Z" style="fill:#ffffff;fill-rule:nonzero;"/><path d="M1662.64,935.456l-76.113,-137.729l-76.721,137.729l152.834,0Zm-141.959,-247.671l131.088,0l253.104,422.855l-144.371,-0l-39.871,-71.28l-268.816,0l-39.867,71.28l-144.371,-0l253.104,-422.855Z" style="fill:#ffffff;fill-rule:nonzero;"/><path d="M1916.93,1030.9l292.975,-239.212l-288.142,-0l0,-103.9l498.363,-0l-0,78.529l-291.771,240.421l297.813,-0l-0,103.904l-509.238,-0l0,-79.742Z" style="fill:#ffffff;fill-rule:nonzero;"/><rect x="2465.41" y="687.788" width="122.025" height="422.854" style="fill:#ffffff;"/><path d="M3024.19,899.21c0,-77.321 -53.158,-117.188 -145.583,-117.188c-91.821,0 -144.979,39.867 -144.979,117.188c-0,77.325 53.158,117.191 144.979,117.191c92.425,0 145.583,-39.866 145.583,-117.191m-412.587,-0c-0,-132.896 102.091,-221.092 267.004,-221.092c165.517,-0 267.608,88.196 267.608,221.092c0,132.9 -102.092,221.095 -267.608,221.095c-164.913,0 -267.004,-88.195 -267.004,-221.095" style="fill:#ffffff;fill-rule:nonzero;"/><path d="M528.451,1234.01c-0,-20.946 -15.946,-33.379 -40.675,-33.379c-24.596,-0 -40.542,12.433 -40.542,33.379c0,20.946 15.946,33.246 40.542,33.246c24.729,-0 40.675,-12.3 40.675,-33.246m-100.409,-0c0,-29.729 22.842,-49.463 59.734,-49.463c37.025,0 59.862,19.734 59.862,49.463c0,29.729 -22.837,49.462 -59.862,49.462c-36.892,0 -59.734,-19.733 -59.734,-49.462" style="fill:#ffffff;fill-rule:nonzero;"/><path d="M712.824,1228.6c11.083,0 15.945,-3.779 15.945,-12.971c0,-9.187 -4.862,-13.108 -15.945,-13.108l-45.138,-0l0,26.079l45.138,0Zm-64.188,-41.892l67.567,0c19.596,0 31.758,13.109 31.758,28.921c0,19.188 -13.517,28.784 -31.758,28.784l-48.379,-0l-0,36.891l-19.188,0l0,-94.596Z" style="fill:#ffffff;fill-rule:nonzero;"/><path d="M849.762,1186.71l89.187,-0l0,16.079l-70,-0l0,22.975l68.788,-0l-0,15l-68.788,-0l0,24.329l70,-0l0,16.212l-89.187,0l-0,-94.595Z" style="fill:#ffffff;fill-rule:nonzero;"/><path d="M1045.08,1186.71l17.434,-0l70.812,68.108l0,-68.108l19.188,-0l-0,94.595l-17.567,0l-70.675,-68.108l0,68.108l-19.192,0l0,-94.595Z" style="fill:#ffffff;fill-rule:nonzero;"/><path d="M1322.3,1186.71l20.813,-0l25.133,69.729l23.788,-69.729l18.783,-0l23.646,69.729l25.271,-69.729l20.812,-0l-35,94.595l-21.621,0l-22.433,-66.62l-22.704,66.62l-21.488,0l-35,-94.595Z" style="fill:#ffffff;fill-rule:nonzero;"/><path d="M1671.69,1234.01c-0,-20.946 -15.946,-33.379 -40.675,-33.379c-24.596,-0 -40.546,12.433 -40.546,33.379c-0,20.946 15.95,33.246 40.546,33.246c24.729,-0 40.675,-12.3 40.675,-33.246m-100.409,-0c0,-29.729 22.842,-49.463 59.734,-49.463c37.025,0 59.862,19.734 59.862,49.463c0,29.729 -22.837,49.462 -59.862,49.462c-36.892,0 -59.734,-19.733 -59.734,-49.462" style="fill:#ffffff;fill-rule:nonzero;"/><path d="M1861.47,1225.49c11.216,0 15.945,-4.054 15.945,-10.946c0,-8.379 -4.866,-12.025 -15.945,-12.025l-50.675,0l0.133,22.971l50.542,0Zm-69.596,-38.783l74.325,-0c19.596,-0 30.408,10.542 30.408,25c0,15.137 -12.162,23.783 -30.408,23.783l-10,0c22.296,1.488 31.079,15.004 47.3,45.817l-22.975,-0c-17.567,-31.488 -21.892,-40.138 -38.784,-40.138l-30.812,0l0.137,40.138l-19.191,-0l-0,-94.6Z" style="fill:#ffffff;fill-rule:nonzero;"/><path d="M2002.87,1186.71l19.187,-0l0,53.245l60.546,-53.245l27.296,-0l-38.783,32.97l42.162,61.625l-24.866,0l-32.296,-48.92l-34.059,28.92l0,20l-19.187,0l-0,-94.595Z" style="fill:#ffffff;fill-rule:nonzero;"/><path d="M2215.48,1251.04l20,-0c-0.134,9.187 11.216,16.216 31.354,16.216c21.487,0.134 35.133,-3.645 35.133,-13.379c0,-22.975 -84.596,1.079 -84.596,-39.191c0,-19.321 20.138,-30.138 49.325,-30.138c30.946,0 51.625,12.704 51.896,32.433l-20,0c0.133,-9.32 -10.812,-16.212 -30.542,-16.35c-19.325,0 -31.216,3.784 -31.216,12.571c-0,20.942 84.458,-1.487 84.458,39.996c0,19.329 -21.487,30.275 -52.971,30.275c-32.3,0 -53.246,-13.108 -52.841,-32.433" style="fill:#ffffff;fill-rule:nonzero;"/><path d="M2487.15,1228.6c11.084,0 15.946,-3.779 15.946,-12.971c0,-9.187 -4.862,-13.108 -15.946,-13.108l-45.137,-0l-0,26.079l45.137,0Zm-64.191,-41.892l67.57,0c19.592,0 31.759,13.109 31.759,28.921c-0,19.188 -13.517,28.784 -31.759,28.784l-48.379,-0l0,36.891l-19.191,0l-0,-94.596Z" style="fill:#ffffff;fill-rule:nonzero;"/><path d="M2687.87,1245.09l-25.95,-45l-26.216,45l52.166,-0Zm-37.704,-58.38l23.246,0l57.7,94.596l-22.163,0l-11.754,-19.996l-70.812,0l-11.621,19.996l-22.163,0l57.567,-94.596Z" style="fill:#ffffff;fill-rule:nonzero;"/><path d="M2813.05,1234.01c0,-29.729 22.838,-49.463 57.03,-49.463c34.191,0 57.029,17.296 57.029,43.384l-19.463,-0c-0.941,-17.296 -15.946,-27.3 -37.566,-27.3c-22.705,-0 -37.842,12.433 -37.842,33.379c-0,20.946 15.137,33.246 37.842,33.246c21.758,-0 36.758,-9.871 37.566,-27.167l19.463,0c-0,26.088 -22.838,43.383 -57.029,43.383c-34.192,0 -57.03,-19.733 -57.03,-49.462" style="fill:#ffffff;fill-rule:nonzero;"/><path d="M3026.07,1186.71l89.192,-0l0,16.079l-70.004,-0l-0,22.975l68.787,-0l0,15l-68.787,-0l-0,24.329l70.004,-0l0,16.212l-89.192,0l0,-94.595Z" style="fill:#ffffff;fill-rule:nonzero;"/></g></svg>
